<svg version="1" xmlns="http://www.w3.org/2000/svg" width="341.333" height="341.333" viewBox="0 0 256.000000 256.000000"><path d="M110.5 1.1C54.9 9.1 11.4 51.6 1.6 107.5c-3.2 18.4-.7 45.1 5.9 63.5 15.3 42.2 51.9 73.9 95.6 82.5 9.4 1.9 34 2.8 40.9 1.5 2.5-.4 6.1-1.1 8-1.4 1.9-.3 5.3-1.1 7.5-1.6 2.2-.6 4.7-1.2 5.5-1.4 4.5-1.1 19.7-7.8 26.2-11.5 32.2-18.4 54.1-48.6 62-85.1 2.3-10.8 3.2-33.8 1.7-43.5-6.7-42.4-31.5-77.3-68.7-96.3-8.3-4.3-22-9.4-28.7-10.8-1.1-.2-4.5-.9-7.5-1.5-7.1-1.4-31.7-1.9-39.5-.8z"/></svg>